PathFileType	4	(X/Y/Z)	Kaydara																																																																																																																																																																																																																																																	
DataRate	CameraRate	NumFrames	NumMarkers	Units	OrigDataRate	OrigDataStartFrame	OrigNumFrames																																																																																																																																																																																																																																													
30	30	8	41	mm	30	65	273																																																																																																																																																																																																																																													
Frame#	Time	SALE_LFHD			SALE_RFHD			SALE_LBHD			SALE_RBHD			SALE_LFTShould			SALE_RFTShould			SALE_LRRShould			SALE_RRRShould			SALE_T10			SALE_STRN			SALE_TRUN			SALE_LSHO			SALE_LUPA			SALE_LELB			SALE_LFRM			SALE_LWRA			SALE_LWRB			SALE_LFIN			SALE_RSHO			SALE_RUPA			SALE_RELB			SALE_RFRM			SALE_RWRB			SALE_RFIN			SALE_LFWT			SALE_RFWT			SALE_LBWT			SALE_RBWT			SALE_LTHI			SALE_LKNE			SALE_RWRA			SALE_LSHN			SALE_LANK			SALE_LHEE			SALE_LTOE			SALE_RTHI			SALE_RKNE			SALE_RSHN			SALE_RANK			SALE_RHEE			SALE_RTOE																																																																																																																										
		X1	Y1	Z1	X2	Y2	Z2	X3	Y3	Z3	X4	Y4	Z4	X5	Y5	Z5	X6	Y6	Z6	X7	Y7	Z7	X8	Y8	Z8	X9	Y9	Z9	X10	Y10	Z10	X11	Y11	Z11	X12	Y12	Z12	X13	Y13	Z13	X14	Y14	Z14	X15	Y15	Z15	X16	Y16	Z16	X17	Y17	Z17	X18	Y18	Z18	X19	Y19	Z19	X20	Y20	Z20	X21	Y21	Z21	X22	Y22	Z22	X23	Y23	Z23	X24	Y24	Z24	X25	Y25	Z25	X26	Y26	Z26	X27	Y27	Z27	X28	Y28	Z28	X29	Y29	Z29	X30	Y30	Z30	X31	Y31	Z31	X32	Y32	Z32	X33	Y33	Z33	X34	Y34	Z34	X35	Y35	Z35	X36	Y36	Z36	X37	Y37	Z37	X38	Y38	Z38	X39	Y39	Z39	X40	Y40	Z40	X41	Y41	Z41																																																																																																																							Y81	Z81
																																																																																																																																																																																																																																																				
35	2.133	214.02744	1614.9118	-1935.48798	84.32825	1610.27344	-1936.06781	210.01066	1657.3938	-2061.75415	84.58748	1650.0943	-2056.15433	229.39999	1389.6817	-2038.56018	87.92967	1387.00745	-2034.0625	218.39834	1444.90906	-2153.06778	67.31992	1447.65167	-2140.18143	142.06915	1288.98087	-2209.13879	156.9752	1319.8735	-1986.03333	157.15114	1236.30722	-1939.78912	342.2052	1412.72049	-2110.92026	385.36907	1194.32823	-2112.45056	371.97922	1085.31189	-2127.35962	397.71793	981.19675	-2088.70697	329.2934	846.89346	-2023.89786	398.51891	837.81227	-2054.91623	391.48045	797.74643	-2005.00336	-22.88456	1413.42911	-2092.34665	-61.33765	1181.90155	-2142.34436	-80.55051	1082.64114	-2088.67218	-73.98494	969.31786	-2094.90433	-78.519	833.04909	-2041.53091	-75.40249	795.72525	-1985.7225	285.71314	978.00301	-1986.2085	5.16013	972.41638	-2002.3732	234.09378	1044.21768	-2156.42548	55.77498	1046.94336	-2164.47433	293.81992	676.46797	-2151.70364	278.29033	506.1676	-2072.29141	-23.43861	847.80869	-1997.55356	273.9732	308.75288	-2072.54242	275.49715	124.21885	-2119.92889	244.65519	75.00812	-2184.96231	235.48016	86.4113	-1987.75055	2.74493	722.51595	-2163.43552	23.2427	561.87027	-2060.83664	76.77753	375.13939	-2077.16492	32.80812	124.04825	-2129.9585	44.20785	77.9377	-2008.70453	78.60008	63.11924	-2198.67523																																																																																																																							0	-0.00191
36	2.167	214.29296	1614.46732	-1934.41986	84.72903	1609.96994	-1935.57236	210.78932	1657.47086	-2061.15234	85.43706	1650.0882	-2055.49454	230.0913	1389.84894	-2038.28445	88.3177	1386.9754	-2033.99994	219.2452	1444.97803	-2152.43713	68.11532	1447.77893	-2140.04974	142.94631	1289.17038	-2208.98102	157.14313	1319.68658	-1985.75699	157.19454	1236.12267	-1939.71619	342.89562	1412.72141	-2110.08881	385.70728	1194.18991	-2111.55106	372.11708	1085.34622	-2126.78116	397.5375	980.92934	-2087.95624	328.66966	846.67793	-2023.4082	398.00312	837.54097	-2054.33548	390.74688	797.4427	-2004.47021	-22.27131	1413.51669	-2092.53479	-60.77649	1182.27386	-2143.17841	-80.47684	1082.8743	-2089.74564	-73.90589	969.52042	-2096.01349	-78.63516	833.19038	-2042.64557	-75.80571	795.88783	-1986.79169	285.89754	978.01117	-1985.83267	5.26954	972.47009	-2002.491	234.58088	1044.1111	-2156.12061	56.25101	1046.89995	-2164.48181	294.07846	676.46675	-2151.38077	278.37524	506.16108	-2072.11868	-23.97102	847.99911	-1998.41125	274.00187	308.71252	-2072.44156	275.49463	124.15076	-2119.89655	244.67981	74.9967	-2184.95667	235.46946	86.41987	-1987.7652	3.39074	722.51678	-2163.46695	23.46288	561.88412	-2060.77133	77.07941	375.1297	-2077.00287	32.96921	124.11264	-2130.02045	44.14739	77.94329	-2008.70239	78.72602	63.12736	-2198.65616																																																																																																																							0	-0.00191
37	2.2	214.82994	1614.18365	-1933.71506	85.22424	1609.86069	-1935.04349	211.67442	1657.07336	-2059.84222	86.1692	1650.16006	-2055.00275	230.40581	1389.70123	-2037.5824	88.62276	1386.88354	-2033.91373	219.90238	1445.03342	-2151.8808	68.79144	1447.85324	-2139.91669	143.72806	1289.27048	-2208.75046	157.37691	1319.55994	-1985.55878	157.32447	1235.9288	-1939.67773	343.38913	1412.70462	-2109.25049	385.92094	1194.05136	-2110.77118	372.11933	1085.21385	-2126.08231	397.23732	980.76462	-2087.21191	328.11073	846.74149	-2022.67975	397.37961	837.44011	-2053.59375	389.88712	797.31445	-2003.71964	-21.76394	1413.61542	-2092.65778	-60.38962	1182.50061	-2143.93387	-80.41797	1083.02933	-2090.72067	-73.90022	969.61487	-2097.12158	-78.77444	833.29643	-2043.65326	-76.29503	796.0405	-1987.74689	286.01212	977.87544	-1985.37567	5.45199	972.58171	-2002.36099	235.02434	1043.9901	-2155.88333	56.70883	1046.80984	-2164.48212	294.34315	676.47827	-2151.14166	278.53321	506.0844	-2072.00165	-24.35802	848.1601	-1999.10965	274.08218	308.66398	-2072.38235	275.53226	124.13851	-2119.88525	244.69585	74.95714	-2184.9588	235.45645	86.40406	-1987.77405	3.87796	722.33574	-2163.1633	23.89576	561.94489	-2060.47638	77.43257	375.12634	-2076.74072	33.11281	124.23389	-2129.98978	44.17234	77.92378	-2008.73627	78.81819	63.1365	-2198.62427																																																																																																																							0	-0.00191
38	2.233	215.22514	1613.95889	-1933.08365	85.66406	1609.84039	-1934.57214	212.26341	1656.95862	-2059.25827	86.77237	1650.18631	-2054.49402	228.724	1388.51486	-2035.92026	88.97089	1386.8222	-2033.73459	220.53167	1445.0531	-2151.36902	69.32535	1447.95135	-2139.74579	144.39584	1289.41681	-2208.5849	157.50546	1319.3924	-1985.32776	157.4076	1235.74646	-1939.56696	343.84827	1412.67014	-2108.49396	386.17241	1193.98216	-2110.02716	372.20791	1085.09842	-2125.36423	396.97216	980.63835	-2086.33743	327.17945	846.782	-2021.82739	396.70719	837.33086	-2052.5296	389.00326	797.37488	-2002.65778	-21.25748	1413.59482	-2092.71713	-60.00575	1182.78076	-2144.59015	-80.36477	1083.0925	-2091.57059	-73.85765	969.67842	-2097.9303	-78.96619	833.35876	-2044.60205	-76.78228	796.05881	-1988.66333	286.21204	977.82585	-1984.97162	5.73017	972.57988	-2002.23389	235.38561	1043.93074	-2155.63049	57.11788	1046.78833	-2164.32541	294.56764	676.50864	-2150.95551	278.64595	505.9552	-2071.89575	-24.593	848.07808	-1999.78226	274.20521	308.63083	-2072.3381	275.53951	124.10677	-2119.8674	244.69109	74.98271	-2184.94827	235.45502	86.41513	-1987.76855	4.03221	722.35405	-2162.82425	24.25331	561.94305	-2060.11368	77.62752	375.03731	-2076.39099	33.19504	124.26326	-2129.9295	44.19113	77.93259	-2008.69415	78.89418	63.19746	-2198.59116																																																																																																																							0	-0.00191
39	2.267	215.56536	1613.80112	-1932.66953	86.11997	1609.74274	-1934.142	212.71263	1656.91025	-2058.83377	87.20691	1650.22415	-2054.04053	231.25746	1389.72702	-2036.98257	89.28239	1386.81335	-2033.54691	221.00094	1445.07538	-2151.06873	69.77611	1447.98691	-2139.56085	144.9041	1289.48196	-2208.3577	157.80557	1319.30298	-1985.17395	157.65828	1235.6768	-1939.4754	344.24751	1412.50946	-2107.75497	386.47072	1193.86002	-2109.44214	372.38758	1085.06111	-2124.87457	396.83044	980.47386	-2085.43015	326.60702	847.03888	-2020.76889	396.15959	837.24251	-2051.29288	388.13568	797.37961	-2001.31134	-20.88964	1413.66989	-2092.69669	-59.5737	1182.92587	-2144.87396	-80.17898	1083.17902	-2091.99051	-73.74472	969.79836	-2098.49121	-79.1181	833.36632	-2045.40756	-77.17761	796.02783	-1989.47662	286.50288	977.77069	-1984.65622	5.9264	972.56203	-2001.87698	235.69124	1043.93799	-2155.37811	57.458	1046.82144	-2164.06143	294.82637	676.51901	-2150.83481	278.81824	505.87215	-2071.8808	-24.97366	847.95166	-2000.34058	274.30677	308.61443	-2072.33383	275.56091	124.07465	-2119.82941	244.69139	74.98658	-2184.95392	235.47493	86.39925	-1987.77451	4.30965	722.28531	-2162.47818	24.48757	561.99986	-2059.944	77.83266	375.06664	-2076.33392	33.24212	124.29303	-2129.87152	44.19778	77.92938	-2008.66516	78.90619	63.21997	-2198.5762																																																																																																																							0	-0.00191
40	2.3	216.00079	1613.71078	-1932.49237	86.39336	1609.70749	-1933.93967	213.06479	1656.82846	-2058.61496	87.55205	1650.177	-2053.8205	231.57948	1389.62051	-2036.6983	89.53313	1386.8541	-2033.42361	221.34604	1444.96704	-2150.83771	70.12784	1447.97577	-2139.43359	145.22616	1289.39743	-2208.15353	158.04729	1319.25797	-1984.97864	157.91995	1235.63805	-1939.29932	344.53247	1412.43408	-2107.62772	386.72615	1193.6998	-2108.84186	372.63134	1084.85489	-2124.24973	396.79001	980.29602	-2084.43634	326.23367	847.13676	-2019.93011	395.90855	837.19025	-2050.00366	387.59163	797.45972	-1999.90692	-20.588	1413.65906	-2092.60666	-59.06134	1182.78625	-2144.81033	-79.85762	1083.19252	-2092.12967	-73.55363	969.7612	-2098.80203	-79.17707	833.30841	-2046.05911	-77.36434	795.82573	-1990.16266	286.86935	977.71896	-1984.34845	6.33286	972.60536	-2001.48727	235.95142	1043.88733	-2155.05295	57.71111	1046.81969	-2163.66699	295.03656	676.50055	-2150.72556	279.03238	505.93971	-2071.77582	-24.93949	847.84348	-2000.72174	274.37399	308.56022	-2072.24533	275.58109	124.0833	-2119.85382	244.69809	74.96287	-2184.97711	235.48563	86.39442	-1987.78275	4.44705	722.45216	-2162.3999	24.61752	561.96075	-2059.99634	77.82552	375.01293	-2076.28708	33.25609	124.28102	-2129.89166	44.22174	77.90975	-2008.66394	78.94232	63.21635	-2198.56201																																																																																																																							0	-0.00191
41	2.333	216.27323	1613.65341	-1932.41028	86.66913	1609.66965	-1933.8588	213.32603	1656.78894	-2058.54507	87.82939	1650.15533	-2053.694	231.92146	1389.53094	-2036.66885	89.77811	1386.76437	-2033.25775	221.57301	1444.88327	-2150.75607	70.35726	1447.87964	-2139.2836	145.41851	1289.24728	-2207.93884	158.38323	1319.20959	-1984.89426	158.22801	1235.58372	-1939.12094	344.87061	1412.38098	-2107.64603	386.92413	1193.53966	-2108.3992	372.92625	1084.71573	-2123.64471	396.97937	980.25574	-2083.60199	326.24908	847.22466	-2018.83224	395.98396	837.12212	-2048.77716	387.56218	797.54807	-1998.69904	-20.36153	1413.56949	-2092.37961	-58.79426	1182.72171	-2144.60693	-79.46174	1083.05016	-2091.8718	-73.23641	969.74983	-2098.88138	-79.05402	833.15613	-2046.50406	-77.30365	795.43877	-1990.73441	287.20905	977.65175	-1984.44092	6.62349	972.48337	-2001.203	236.22293	1043.86215	-2154.75327	58.01232	1046.75537	-2163.30887	295.25175	676.4949	-2150.578	279.20425	505.90855	-2071.69144	-24.81008	847.41516	-2001.11298	274.5022	308.56297	-2072.24426	275.63951	124.04526	-2119.84421	244.69423	74.92559	-2184.9704	235.4812	86.39551	-1987.78305	4.70457	722.37526	-2162.12189	24.75598	561.85299	-2060.02502	77.8937	375.07378	-2076.43631	33.25723	124.32422	-2129.88022	44.19046	77.91688	-2008.65707	78.93346	63.22356	-2198.55957																																																																																																																							0	-0.00191
42	2.367	216.54633	1613.68668	-1932.43912	86.97816	1609.70169	-1933.8118	213.55209	1656.74927	-2058.61816	88.04719	1650.15167	-2053.67676	232.04365	1389.43024	-2036.61163	90.02444	1386.68152	-2033.09204	221.69794	1444.79294	-2150.75867	70.46268	1447.77161	-2139.12659	145.53601	1289.10095	-2207.76016	158.56268	1319.10782	-1984.74457	158.48324	1235.53764	-1938.90305	344.93847	1412.2374	-2107.65594	387.14775	1193.47359	-2108.13293	373.19839	1084.59328	-2123.15521	397.2607	980.22011	-2082.87109	326.63208	847.23145	-2018.04031	396.36238	837.17155	-2047.78168	387.95513	797.71065	-1997.6474	-20.1985	1413.46619	-2092.15118	-58.55986	1182.5248	-2144.10004	-79.05959	1082.88658	-2091.38916	-72.82839	969.59358	-2098.57666	-78.72849	832.92305	-2046.58249	-76.98862	795.01785	-1991.00754	287.13655	977.32704	-1985.68192	6.79889	972.39273	-2000.87051	236.54325	1043.85483	-2154.46701	58.30646	1046.7289	-2163.04123	295.52549	676.51184	-2150.41962	279.37424	505.87593	-2071.61911	-24.65255	846.96877	-2001.28357	274.58065	308.53575	-2072.2197	275.67846	124.02411	-2119.83246	244.70507	74.93721	-2184.97696	235.48861	86.39521	-1987.78168	4.93698	722.29233	-2161.92703	24.83369	561.82129	-2060.03494	77.92313	375.0341	-2076.45874	33.25047	124.29928	-2129.85626	44.20374	77.91391	-2008.63831	78.93201	63.20953	-2198.55927																																																																																																																							0	-0.00191
